<?xml version="1.0" encoding="UTF-8"?>
<svg version="1.1" xmlns="http://www.w3.org/2000/svg" width="128" height="128">
<path d="M0 0 C5.28 0 10.56 0 16 0 C16 2.64 16 5.28 16 8 C18.64 8 21.28 8 24 8 C24 5.36 24 2.72 24 0 C26.64 0 29.28 0 32 0 C32 2.64 32 5.28 32 8 C34.64 8 37.28 8 40 8 C40 15.92 40 23.84 40 32 C37.36 32 34.72 32 32 32 C32 34.64 32 37.28 32 40 C29.36 40 26.72 40 24 40 C24 50.56 24 61.12 24 72 C26.64 72 29.28 72 32 72 C32 77.28 32 82.56 32 88 C29.36 88 26.72 88 24 88 C24 95.92 24 103.84 24 112 C18.72 112 13.44 112 8 112 C8 109.36 8 106.72 8 104 C2.72 104 -2.56 104 -8 104 C-8 106.64 -8 109.28 -8 112 C-18.56 112 -29.12 112 -40 112 C-40 104.08 -40 96.16 -40 88 C-42.64 88 -45.28 88 -48 88 C-48 82.72 -48 77.44 -48 72 C-45.36 72 -42.72 72 -40 72 C-40 66.72 -40 61.44 -40 56 C-42.64 56 -45.28 56 -48 56 C-48 53.36 -48 50.72 -48 48 C-50.64 48 -53.28 48 -56 48 C-56 40.08 -56 32.16 -56 24 C-53.36 24 -50.72 24 -48 24 C-48 21.36 -48 18.72 -48 16 C-45.36 16 -42.72 16 -40 16 C-40 13.36 -40 10.72 -40 8 C-26.8 8 -13.6 8 0 8 C0 5.36 0 2.72 0 0 Z " fill="#42665A" transform="translate(72,16)"/>
<path d="M0 0 C5.28 0 10.56 0 16 0 C16 2.64 16 5.28 16 8 C13.36 8 10.72 8 8 8 C8 10.64 8 13.28 8 16 C10.64 16 13.28 16 16 16 C16 26.56 16 37.12 16 48 C-5.12 48 -26.24 48 -48 48 C-48 42.72 -48 37.44 -48 32 C-42.72 32 -37.44 32 -32 32 C-32 26.72 -32 21.44 -32 16 C-29.36 16 -26.72 16 -24 16 C-24 13.36 -24 10.72 -24 8 C-21.36 8 -18.72 8 -16 8 C-16 10.64 -16 13.28 -16 16 C-13.36 16 -10.72 16 -8 16 C-8 13.36 -8 10.72 -8 8 C-5.36 8 -2.72 8 0 8 C0 5.36 0 2.72 0 0 Z " fill="#739A56" transform="translate(72,56)"/>
<path d="M0 0 C2.64 0 5.28 0 8 0 C8 10.56 8 21.12 8 32 C10.64 32 13.28 32 16 32 C16 37.28 16 42.56 16 48 C13.36 48 10.72 48 8 48 C8 55.92 8 63.84 8 72 C2.72 72 -2.56 72 -8 72 C-8 69.36 -8 66.72 -8 64 C-13.28 64 -18.56 64 -24 64 C-24 66.64 -24 69.28 -24 72 C-34.56 72 -45.12 72 -56 72 C-56 64.08 -56 56.16 -56 48 C-37.52 48 -19.04 48 0 48 C0 37.44 0 26.88 0 16 C-2.64 16 -5.28 16 -8 16 C-8 13.36 -8 10.72 -8 8 C-5.36 8 -2.72 8 0 8 C0 5.36 0 2.72 0 0 Z " fill="#353D46" transform="translate(88,56)"/>
<path d="M0 0 C5.28 0 10.56 0 16 0 C16 2.64 16 5.28 16 8 C13.36 8 10.72 8 8 8 C8 10.64 8 13.28 8 16 C10.64 16 13.28 16 16 16 C16 18.64 16 21.28 16 24 C13.36 24 10.72 24 8 24 C8 26.64 8 29.28 8 32 C2.72 32 -2.56 32 -8 32 C-8 29.36 -8 26.72 -8 24 C-15.92 24 -23.84 24 -32 24 C-32 21.36 -32 18.72 -32 16 C-29.36 16 -26.72 16 -24 16 C-24 13.36 -24 10.72 -24 8 C-21.36 8 -18.72 8 -16 8 C-16 10.64 -16 13.28 -16 16 C-13.36 16 -10.72 16 -8 16 C-8 13.36 -8 10.72 -8 8 C-5.36 8 -2.72 8 0 8 C0 5.36 0 2.72 0 0 Z " fill="#B2C27D" transform="translate(72,56)"/>
<path d="M0 0 C15.84 0 31.68 0 48 0 C48 2.64 48 5.28 48 8 C37.44 8 26.88 8 16 8 C16 10.64 16 13.28 16 16 C10.72 16 5.44 16 0 16 C0 10.72 0 5.44 0 0 Z " fill="#42665A" transform="translate(40,104)"/>
<path d="M0 0 C7.92 0 15.84 0 24 0 C24 5.28 24 10.56 24 16 C16.08 16 8.16 16 0 16 C0 10.72 0 5.44 0 0 Z " fill="#B2C27D" transform="translate(24,88)"/>
<path d="M0 0 C13.2 0 26.4 0 40 0 C40 2.64 40 5.28 40 8 C26.8 8 13.6 8 0 8 C0 5.36 0 2.72 0 0 Z " fill="#353D46" transform="translate(32,24)"/>
<path d="M0 0 C2.64 0 5.28 0 8 0 C8 7.92 8 15.84 8 24 C5.36 24 2.72 24 0 24 C0 16.08 0 8.16 0 0 Z " fill="#353D46" transform="translate(16,40)"/>
<path d="M0 0 C2.64 0 5.28 0 8 0 C8 7.92 8 15.84 8 24 C5.36 24 2.72 24 0 24 C0 16.08 0 8.16 0 0 Z " fill="#353D46" transform="translate(104,24)"/>
<path d="M0 0 C2.64 0 5.28 0 8 0 C8 5.28 8 10.56 8 16 C5.36 16 2.72 16 0 16 C0 10.72 0 5.44 0 0 Z " fill="#353D46" transform="translate(24,88)"/>
<path d="M0 0 C2.64 0 5.28 0 8 0 C8 5.28 8 10.56 8 16 C5.36 16 2.72 16 0 16 C0 10.72 0 5.44 0 0 Z " fill="#353D46" transform="translate(32,72)"/>
<path d="M0 0 C5.28 0 10.56 0 16 0 C16 2.64 16 5.28 16 8 C10.72 8 5.44 8 0 8 C0 5.36 0 2.72 0 0 Z " fill="#353D46" transform="translate(72,16)"/>
<path d="M0 0 C2.64 0 5.28 0 8 0 C8 2.64 8 5.28 8 8 C5.36 8 2.72 8 0 8 C0 5.36 0 2.72 0 0 Z " fill="#353D46" transform="translate(56,64)"/>
<path d="M0 0 C2.64 0 5.28 0 8 0 C8 2.64 8 5.28 8 8 C5.36 8 2.72 8 0 8 C0 5.36 0 2.72 0 0 Z " fill="#353D46" transform="translate(24,64)"/>
<path d="M0 0 C2.64 0 5.28 0 8 0 C8 2.64 8 5.28 8 8 C5.36 8 2.72 8 0 8 C0 5.36 0 2.72 0 0 Z " fill="#353D46" transform="translate(96,48)"/>
<path d="M0 0 C2.64 0 5.28 0 8 0 C8 2.64 8 5.28 8 8 C5.36 8 2.72 8 0 8 C0 5.36 0 2.72 0 0 Z " fill="#353D46" transform="translate(24,32)"/>
<path d="M0 0 C2.64 0 5.28 0 8 0 C8 2.64 8 5.28 8 8 C5.36 8 2.72 8 0 8 C0 5.36 0 2.72 0 0 Z " fill="#353D46" transform="translate(88,24)"/>
<path d="M0 0 C2.64 0 5.28 0 8 0 C8 2.64 8 5.28 8 8 C5.36 8 2.72 8 0 8 C0 5.36 0 2.72 0 0 Z " fill="#353D46" transform="translate(96,16)"/>
</svg>
